<svg data-v-0dd9719b="" version="1.0" xmlns="http://www.w3.org/2000/svg" xmlns:xlink="http://www.w3.org/1999/xlink" width="100%" height="100%" viewBox="0 0 340.000000 250.000000" preserveAspectRatio="xMidYMid meet" color-interpolation-filters="sRGB" style="margin: auto;"> <rect data-v-0dd9719b="" x="0" y="0" width="100%" height="100%" fill="#ffffff" fill-opacity="1" class="background"></rect> <rect data-v-0dd9719b="" x="0" y="0" width="100%" height="100%" fill="url(#watermark)" fill-opacity="1" class="watermarklayer"></rect> <g data-v-0dd9719b="" class="iconmbgsvg" transform="translate(81.61999523639679,75.8630599975586)"><g fill="#000000" hollow-target="textNormalTran"><g opacity="0.55" transform="translate(32.1300048828125,0)"><g><rect fill="#000000" fill-opacity="0" stroke-width="2" x="0" y="0" width="112.5" height="98.27387399979034" class="image-rect"></rect> <svg x="0" y="0" width="112.5" height="98.27387399979034" filtersec="colorsb1267246200" class="image-svg-svg primary" style="overflow: visible;"><svg xmlns="http://www.w3.org/2000/svg" viewBox="0.002758204936981201 -0.00041903674718923867 84.09198760986328 73.4583511352539"><title>资源 197</title><path d="M42 0h6.35a8.2 8.2 0 0 1 7.47 4.64c1.18 2.13 2.4 4.22 3.6 6.36l4.41 7.78c1.43 2.51 2.88 5 4.31 7.53l5.12 9.07c1.34 2.36 2.7 4.71 4 7.07 2 3.52 4 7 5.93 10.6a7.78 7.78 0 0 1-.3 7.8c-1.53 2.71-3.09 5.4-4.63 8.11-.73 1.27-1.44 2.56-2.17 3.83-.36.63-.48.64-.82 0-1-1.76-2-3.53-3-5.29-1.23-2.14-2.49-4.26-3.71-6.4s-2.3-4.16-3.47-6.23c-2-3.45-3.93-6.88-5.89-10.32-1.4-2.47-2.79-5-4.19-7.44s-2.81-4.9-4.2-7.36l-7-12.25c-1.4-2.46-2.82-4.9-4.21-7.36s-2.77-5.07-4.2-7.6c-.33-.59-.69-1.15-1-1.72s-.31-.82.46-.82z" fill="#1063ec"></path><path d="M25.3 56.53h24.24a1.52 1.52 0 0 1 1.52.88c2.2 3.82 4.45 7.6 6.67 11.4.77 1.31 1.51 2.62 2.27 3.93.1.17.21.35.08.56s-.29.15-.47.15H13.94a7.63 7.63 0 0 1-6.85-4c-2.33-3.94-4.55-8-6.81-11.94-.46-.81-.4-.89.58-.89z" fill="#6faaf8"></path><path d="M25.19 43.45H7.76c-.58 0-.56-.23-.31-.66.74-1.27 1.45-2.55 2.18-3.79 2-3.41 3.94-6.81 5.9-10.23l8-14c.43-.75.85-1.51 1.31-2.24s.55-.59.88 0l3.65 6.37 4.8 8.4 3.11 5.52 5.56 9.74c.47.83.42.93-.51.93z" fill="#428df2"></path></svg></svg> <!----></g></g> <g transform="translate(0,37.661940574645996)"><g data-gra="path-name" fill-rule="" class="tp-name"><g transform="scale(1)"><g><path d="M9.58 0.23Q12.98 0.23 15.27-1.15 17.56-2.53 18.68-4.97 19.8-7.4 19.8-10.55L19.8-10.55Q19.8-16.2 17.33-19.35 14.87-22.5 9.22-22.5L9.22-22.5 1.62-22.5 1.62 0.23 9.58 0.23ZM4.87-19.83L9.15-19.83Q16.82-19.83 16.82-11.2L16.82-11.2Q16.82-7.4 15.06-4.92 13.31-2.43 9.25-2.43L9.25-2.43 4.87-2.43 4.87-19.83ZM35.06-6.07Q33.99-4.16 32.71-3.51 31.42-2.86 30.09-2.86L30.09-2.86Q28.73-2.86 27.53-3.51 26.33-4.16 25.58-5.39 24.83-6.62 24.83-8.28L24.83-8.28 37.95-8.28Q37.98-8.63 37.98-9.09L37.98-9.09Q37.98-11.98 36.84-14.04 35.71-16.1 33.87-17.14 32.04-18.18 29.96-18.18L29.96-18.18Q27.85-18.18 25.97-17.11 24.09-16.04 22.92-13.94 21.75-11.85 21.75-8.93L21.75-8.93Q21.75-6.14 22.95-4.11 24.15-2.08 26.1-1.04 28.05 0 30.22 0L30.22 0Q32.72 0 34.78-1.4 36.84-2.79 37.72-5.42L37.72-5.42 35.06-6.07ZM25-10.71Q25.09-12.27 25.82-13.41 26.55-14.54 27.67-15.14 28.79-15.74 29.99-15.74L29.99-15.74Q31.84-15.74 33.22-14.45 34.6-13.15 34.8-10.71L34.8-10.71 25-10.71ZM54.34-6.78Q53.95-5 52.36-3.64 50.77-2.27 49.24-2.27L49.24-2.27Q47.98-2.27 46.84-3.02 45.71-3.77 45.01-5.31 44.31-6.85 44.31-9.09L44.31-9.09Q44.31-11.26 45.04-12.79 45.77-14.32 46.96-15.09 48.14-15.87 49.44-15.87L49.44-15.87Q50.64-15.87 51.99-14.87 53.33-13.86 53.85-12.6L53.85-12.6 56.35-13.24Q55.7-15.58 53.74-16.93 51.78-18.28 49.34-18.28L49.34-18.28Q47.23-18.28 45.38-17.25 43.53-16.23 42.38-14.14 41.23-12.04 41.23-8.99L41.23-8.99Q41.23-6.04 42.36-3.99 43.5-1.95 45.32-0.93 47.13 0.1 49.21 0.1L49.21 0.1Q50.96 0.1 52.56-0.62 54.15-1.33 55.27-2.74 56.39-4.16 56.74-6.14L56.74-6.14 54.34-6.78ZM58.85-9.28Q58.85-6.33 59.86-4.19 60.87-2.05 62.78-0.96 64.7 0.13 66.84 0.13L66.84 0.13Q68.98 0.13 70.86-0.96 72.75-2.05 73.74-4.24 74.73-6.43 74.73-9.54L74.73-9.54Q74.73-12.43 73.72-14.51 72.71-16.59 70.82-17.64 68.92-18.7 66.77-18.7L66.77-18.7Q64.63-18.7 62.75-17.63 60.87-16.56 59.86-14.43 58.85-12.3 58.85-9.28L58.85-9.28ZM61.9-9.28Q61.9-11.49 62.63-13.05 63.37-14.61 64.39-15.39 65.41-16.17 66.77-16.17L66.77-16.17Q68.1-16.17 69.31-15.39 70.51-14.61 71.09-13.07 71.68-11.52 71.68-9.38L71.68-9.38Q71.68-7.14 71.11-5.57 70.54-3.99 69.35-3.2 68.17-2.4 66.81-2.4L66.81-2.4Q65.44-2.4 64.24-3.2 63.04-3.99 62.47-5.55 61.9-7.11 61.9-9.28L61.9-9.28ZM91.02 0Q91.22 0 91.36-0.15 91.51-0.29 91.51-0.49L91.51-0.49 91.51-10.42 101.38-10.42 101.38 0 104.14 0Q104.33 0 104.48-0.15 104.62-0.29 104.62-0.49L104.62-0.49 104.62-22.72 101.38-22.72 101.38-13.08 91.51-13.08 91.51-22.72 88.26-22.72 88.26 0 91.02 0ZM107.58-9.28Q107.58-6.33 108.58-4.19 109.59-2.05 111.51-0.96 113.42 0.13 115.56 0.13L115.56 0.13Q117.71 0.13 119.59-0.96 121.47-2.05 122.46-4.24 123.45-6.43 123.45-9.54L123.45-9.54Q123.45-12.43 122.45-14.51 121.44-16.59 119.54-17.64 117.64-18.7 115.5-18.7L115.5-18.7Q113.36-18.7 111.47-17.63 109.59-16.56 108.58-14.43 107.58-12.3 107.58-9.28L107.58-9.28ZM110.63-9.28Q110.63-11.49 111.36-13.05 112.09-14.61 113.11-15.39 114.14-16.17 115.5-16.17L115.5-16.17Q116.83-16.17 118.03-15.39 119.23-14.61 119.82-13.07 120.4-11.52 120.4-9.38L120.4-9.38Q120.4-7.14 119.83-5.57 119.26-3.99 118.08-3.2 116.89-2.4 115.53-2.4L115.53-2.4Q114.17-2.4 112.97-3.2 111.77-3.99 111.2-5.55 110.63-7.11 110.63-9.28L110.63-9.28ZM140.14 0Q140.4 0 140.51-0.11 140.62-0.23 140.62-0.49L140.62-0.49 140.62-18.02 137.57-18.02 137.57-6.36Q137.57-4.09 136.44-2.95 135.3-1.82 133.68-1.82L133.68-1.82Q132.31-1.82 131.26-2.56 130.2-3.31 130.2-4.48L130.2-4.48 130.04-18.02 127.31-18.02 127.31-5.88Q127.31-3.02 128.86-1.54 130.4-0.06 132.67-0.06L132.67-0.06Q134.13-0.06 135.53-0.68 136.92-1.3 137.86-2.43L137.86-2.43 137.86 0 140.14 0ZM144.19-5.16Q144.81-2.53 146.87-1.2 148.93 0.13 151.53 0.13L151.53 0.13Q153.41 0.13 155.12-0.55 156.82-1.23 157.86-2.52 158.9-3.8 158.9-5.45L158.9-5.45Q158.9-7.14 157.94-8.18 156.98-9.22 155.62-9.71 154.26-10.19 152.12-10.68L152.12-10.68Q150.49-11.07 149.62-11.36 148.74-11.65 148.14-12.16 147.54-12.66 147.54-13.44L147.54-13.44Q147.54-14.45 148.63-15.08 149.71-15.71 151.17-15.71L151.17-15.71Q152.5-15.71 153.9-14.83 155.3-13.96 155.72-12.85L155.72-12.85 158.15-13.5Q157.63-15.78 155.72-16.98 153.8-18.18 151.37-18.18L151.37-18.18Q149.65-18.18 148.11-17.58 146.56-16.98 145.61-15.81 144.65-14.64 144.65-13.08L144.65-13.08Q144.65-11.36 145.57-10.36 146.5-9.35 147.81-8.86 149.13-8.38 151.24-7.92L151.24-7.92Q152.83-7.56 153.72-7.27 154.61-6.98 155.22-6.46 155.82-5.94 155.82-5.13L155.82-5.13Q155.82-3.86 154.6-3.08 153.38-2.3 151.76-2.3L151.76-2.3Q150.27-2.3 148.71-3.36 147.15-4.41 146.66-5.81L146.66-5.81 144.19-5.16ZM175.46-6.07Q174.38-4.16 173.1-3.51 171.82-2.86 170.49-2.86L170.49-2.86Q169.13-2.86 167.92-3.51 166.72-4.16 165.98-5.39 165.23-6.62 165.23-8.28L165.23-8.28 178.34-8.28Q178.38-8.63 178.38-9.09L178.38-9.09Q178.38-11.98 177.24-14.04 176.1-16.1 174.27-17.14 172.44-18.18 170.36-18.18L170.36-18.18Q168.25-18.18 166.37-17.11 164.48-16.04 163.31-13.94 162.15-11.85 162.15-8.93L162.15-8.93Q162.15-6.14 163.35-4.11 164.55-2.08 166.5-1.04 168.44 0 170.62 0L170.62 0Q173.12 0 175.18-1.4 177.24-2.79 178.12-5.42L178.12-5.42 175.46-6.07ZM165.39-10.71Q165.49-12.27 166.22-13.41 166.95-14.54 168.07-15.14 169.19-15.74 170.39-15.74L170.39-15.74Q172.24-15.74 173.62-14.45 175-13.15 175.2-10.71L175.2-10.71 165.39-10.71Z" transform="translate(-1.6200000047683716, 22.719999313354492)"></path></g> <!----> <!----> <!----> <!----> <!----> <!----> <!----></g></g> <!----></g></g></g><defs v-gra="od"></defs></svg>